<svg width="76" height="76" viewBox="0 0 76 76" fill="none" xmlns="http://www.w3.org/2000/svg">
<path d="M38.0005 6.33301C32.1215 6.33301 26.4833 8.66842 22.3263 12.8255C18.1692 16.9825 15.8338 22.6207 15.8338 28.4997V39.6717C15.8343 40.1629 15.7204 40.6475 15.5013 41.0872L10.0641 51.9583C9.79854 52.4895 9.67312 53.0796 9.69981 53.6729C9.72649 54.2661 9.90439 54.8426 10.2166 55.3478C10.5288 55.8529 10.965 56.2698 11.4836 56.5589C12.0023 56.848 12.5863 56.9998 13.1801 56.9997H62.8208C63.4146 56.9998 63.9986 56.848 64.5173 56.5589C65.036 56.2698 65.4721 55.8529 65.7844 55.3478C66.0966 54.8426 66.2745 54.2661 66.3011 53.6729C66.3278 53.0796 66.2024 52.4895 65.9368 51.9583L60.5028 41.0872C60.2826 40.6478 60.1677 40.1632 60.1671 39.6717V28.4997C60.1671 22.6207 57.8317 16.9825 53.6747 12.8255C49.5176 8.66842 43.8794 6.33301 38.0005 6.33301ZM38.0005 66.4997C36.0351 66.5007 34.1177 65.8921 32.5127 64.7578C30.9077 63.6235 29.6939 62.0193 29.0388 60.1663H46.9621C46.307 62.0193 45.0933 63.6235 43.4882 64.7578C41.8832 65.8921 39.9659 66.5007 38.0005 66.4997Z" fill="white"/>
</svg>
